<svg width="12" height="12" viewBox="0 0 12 12" fill="none" xmlns="http://www.w3.org/2000/svg">
<g id="vuesax/outline/arrow-swap">
<g id="arrow-swap">
<path id="Vector" d="M4.33081 10.2787C4.23948 10.2787 4.14815 10.245 4.07606 10.1729L1.66796 7.76484C1.52857 7.62545 1.52857 7.39474 1.66796 7.25535C1.80735 7.11595 2.03807 7.11595 2.17746 7.25535L4.58555 9.66344C4.72495 9.80283 4.72495 10.0336 4.58555 10.1729C4.51346 10.2402 4.42213 10.2787 4.33081 10.2787Z" fill="#99A1B7"/>
<path id="Vector_2" d="M4.33083 10.2787C4.13376 10.2787 3.97034 10.1153 3.97034 9.91819V1.747C3.97034 1.54993 4.13376 1.38651 4.33083 1.38651C4.5279 1.38651 4.69132 1.54993 4.69132 1.747V9.91819C4.69132 10.1153 4.5279 10.2787 4.33083 10.2787Z" fill="#99A1B7"/>
<path id="Vector_3" opacity="0.3" d="M9.61804 4.51559C9.52671 4.51559 9.43539 4.48195 9.36329 4.40985L6.95519 2.00175C6.8158 1.86236 6.8158 1.63164 6.95519 1.49225C7.09458 1.35286 7.3253 1.35286 7.46469 1.49225L9.87279 3.90035C10.0122 4.03974 10.0122 4.27046 9.87279 4.40985C9.80069 4.48195 9.70936 4.51559 9.61804 4.51559Z" fill="#99A1B7"/>
<path id="Vector_4" opacity="0.3" d="M7.2051 10.2787C7.00803 10.2787 6.8446 10.1153 6.8446 9.91819V1.747C6.8446 1.54993 7.00803 1.38651 7.2051 1.38651C7.40217 1.38651 7.56559 1.54993 7.56559 1.747V9.91819C7.56559 10.1153 7.40697 10.2787 7.2051 10.2787Z" fill="#99A1B7"/>
</g>
</g>
</svg>
