<svg width="14" height="14" viewBox="0 0 14 14" fill="none" xmlns="http://www.w3.org/2000/svg">
<g id="Iconsax/Linear/clipboardtext">
<path id="Vector" d="M5.08334 7.11084H8.96251M5.08334 9.32751H7.51059M6.19168 3.67501H8.40834C9.51668 3.67501 9.51668 3.12084 9.51668 2.56668C9.51668 1.45834 8.96251 1.45834 8.40834 1.45834H6.19168C5.63751 1.45834 5.08334 1.45834 5.08334 2.56668C5.08334 3.67501 5.63751 3.67501 6.19168 3.67501Z" stroke="#0771DE" stroke-width="0.83125" stroke-miterlimit="10" stroke-linecap="round" stroke-linejoin="round"/>
<path id="Vector_2" d="M9.51667 2.57748C11.362 2.67723 12.2875 3.35886 12.2875 5.8914V9.2164C12.2875 11.4331 11.7333 12.5414 8.9625 12.5414H5.6375C2.86667 12.5414 2.3125 11.4331 2.3125 9.2164V5.8914C2.3125 3.3644 3.23796 2.67723 5.08333 2.57748" stroke="#0771DE" stroke-width="0.83125" stroke-miterlimit="10" stroke-linecap="round" stroke-linejoin="round"/>
</g>
</svg>
